<svg width="1632" height="1560" viewBox="0 0 1632 1560" fill="none" xmlns="http://www.w3.org/2000/svg">
<path d="M756.667 0.798645C720.934 4.53198 677.067 12.2653 648.934 19.9986C516.934 56.132 404.667 137.199 328.4 251.332C285.067 316.132 254.4 394.265 242 471.065C235.734 510.265 235.6 512.399 234.667 662.665C233.734 808.932 233.467 815.065 227.867 852.665C214.8 940.799 182.8 1010.27 135.334 1053.33C122.8 1064.53 115.2 1069.47 99.3336 1076.13C47.2003 1098.13 13.6003 1140.13 2.00025 1197.2C0.133586 1206.27 -0.13308 1213.33 0.26692 1232.53C0.933586 1254 1.46692 1258.4 5.06692 1272.13C7.20025 1280.67 10.2669 1290.4 11.7336 1293.73L14.4003 1299.87H796.267C1226.13 1299.87 1578.67 1299.47 1579.47 1298.93C1581.6 1297.47 1586.27 1284.8 1590.13 1270C1593.47 1257.73 1593.73 1254.4 1593.87 1229.33C1594 1199.47 1592.93 1191.73 1585.07 1169.33C1570.4 1127.33 1533.6 1090.13 1491.33 1074.53C1475.87 1068.8 1456.53 1053.47 1440.13 1033.87C1402.53 988.799 1378.8 931.199 1367.47 857.332C1362.67 826.132 1361.33 809.332 1360.4 771.065L1359.6 737.599L1341.47 737.465C1264.53 736.799 1184.4 709.465 1121.73 662.399C1104.13 649.199 1100.53 646.132 1082.13 628.132C973.734 522.132 938.667 366.665 990.8 222.665C999.067 200.132 1018.67 162.132 1031.87 143.332C1048.53 119.465 1058.93 106.665 1075.33 89.5986L1084.67 79.732L1080.67 76.532C1074.4 71.4653 1025.07 47.5986 1004.67 39.5986C958.667 21.5986 916.8 10.932 864 3.86531C847.6 1.59865 834.8 0.931978 802.667 0.665312C780.267 0.531978 759.6 0.531978 756.667 0.798645Z" fill="white"/>
<path d="M1328.67 74.1321C1299.47 77.4654 1280.93 81.1987 1262.67 87.0654C1220.4 100.799 1185.73 121.599 1153.6 152.532C1128.27 177.065 1110.27 201.599 1095.2 232.932C1076 272.399 1067.6 309.332 1067.6 353.332C1067.6 382.132 1069.33 398.665 1074.67 420.665C1083.33 456.665 1094.27 481.732 1115.33 513.332C1155.07 572.932 1218.53 616.265 1288 631.065C1296.4 632.932 1308.27 635.065 1314.27 635.865C1333.2 638.532 1382.13 637.465 1398 633.999C1425.33 627.999 1439.33 623.732 1458.67 615.732C1534.4 583.999 1593.47 519.332 1618 441.332C1624.8 419.732 1629.2 396.665 1629.33 381.599C1629.33 379.865 1629.87 378.932 1630.67 379.332C1631.6 379.865 1632 371.199 1631.87 354.399C1631.87 340.265 1631.33 329.865 1630.8 331.332C1630.13 332.932 1629.2 327.865 1628.13 316.799C1620.4 238.799 1568.93 159.732 1496.93 115.065C1479.07 104.132 1461.87 96.2654 1433.33 86.1321C1408.4 77.3321 1355.07 71.1987 1328.67 74.1321Z" fill="white"/>
<path d="M1332.8 123.611C1308.78 126.353 1293.53 129.424 1278.5 134.251C1243.72 145.549 1215.2 162.661 1188.76 188.109C1167.92 208.292 1153.11 228.476 1140.71 254.253C1124.91 286.722 1118 317.106 1118 353.304C1118 376.998 1119.43 390.599 1123.81 408.698C1130.95 438.315 1139.94 458.937 1157.27 484.934C1189.97 533.966 1242.19 569.615 1299.34 581.791C1306.25 583.327 1316.02 585.082 1320.95 585.74C1336.53 587.934 1376.79 587.056 1389.85 584.204C1412.34 579.268 1423.86 575.758 1439.76 569.177C1502.08 543.07 1550.67 489.87 1570.86 425.7C1576.46 407.93 1580.08 388.954 1580.19 376.559C1580.19 375.133 1580.62 374.365 1581.28 374.694C1582.05 375.133 1582.38 368.003 1582.27 354.182C1582.27 342.554 1581.83 333.999 1581.39 335.205C1580.84 336.521 1580.08 332.353 1579.2 323.249C1572.83 259.079 1530.49 194.032 1471.25 157.286C1456.55 148.291 1442.4 141.819 1418.92 133.483C1398.4 126.243 1354.52 121.198 1332.8 123.611Z" fill="#FF2C2C"/>
<path d="M576 1393.6C576 1396.53 585.333 1420 590.933 1431.33C615.6 1480.53 654.4 1518.13 702.667 1539.33C725.067 1549.2 747.733 1555.6 765.067 1556.93C771.2 1557.47 774.133 1558.13 773.067 1558.93C772.133 1559.47 782.267 1560 797.067 1559.87C812.267 1559.87 822.4 1559.33 822 1558.53C821.467 1557.87 823.6 1557.33 826.667 1557.33C835.2 1557.33 861.333 1551.2 875.6 1545.87C933.067 1524.4 976.533 1485.47 1003.73 1431.2C1009.33 1420 1018.67 1396.53 1018.67 1393.6C1018.67 1393.07 919.067 1392.67 797.333 1392.67C675.6 1392.67 576 1393.07 576 1393.6Z" fill="white"/>
</svg>
