<svg width="19" height="9" viewBox="0 0 19 9" fill="none" xmlns="http://www.w3.org/2000/svg">
<path d="M14.2295 8.19952H3.8595C1.7395 8.19952 0.0195312 6.47953 0.0195312 4.35953C0.0195312 2.23953 1.7395 0.519531 3.8595 0.519531H14.2295C16.3495 0.519531 18.0695 2.23953 18.0695 4.35953C18.0695 6.47953 16.3495 8.19952 14.2295 8.19952Z" fill="#0092ED"/>
<path d="M5.42975 4.3403C5.42975 4.5103 5.40975 4.6603 5.36975 4.7903C5.32975 4.9203 5.26975 5.04031 5.17975 5.13031C5.09975 5.22031 4.98975 5.2903 4.86975 5.3403C4.74975 5.3903 4.60977 5.41031 4.44977 5.41031C4.28977 5.41031 4.14973 5.39031 4.03973 5.35031C3.91973 5.31031 3.81976 5.25031 3.74976 5.16031C3.67976 5.07031 3.60976 4.9703 3.56976 4.8403C3.52976 4.7103 3.50977 4.55031 3.50977 4.38031C3.50977 4.22031 3.52976 4.07031 3.56976 3.94031C3.60976 3.81031 3.66977 3.70031 3.75977 3.60031C3.83977 3.51031 3.94976 3.4403 4.06976 3.3903C4.18976 3.3403 4.32975 3.32031 4.48975 3.32031C4.64975 3.32031 4.77978 3.34031 4.89978 3.38031C5.01978 3.42031 5.11977 3.48031 5.19977 3.57031C5.27977 3.65031 5.33976 3.7603 5.37976 3.8903C5.41976 4.0203 5.43976 4.17031 5.43976 4.35031L5.42975 4.3403ZM4.98975 4.36031C4.98975 4.25031 4.98978 4.16031 4.95978 4.07031C4.93978 3.98031 4.90975 3.91031 4.86975 3.85031C4.82975 3.79031 4.77978 3.74031 4.70978 3.71031C4.63978 3.68031 4.55978 3.66031 4.45978 3.66031C4.35978 3.66031 4.26978 3.68031 4.20978 3.72031C4.13978 3.76031 4.08974 3.8103 4.04974 3.8703C4.00974 3.9303 3.97978 4.0103 3.95978 4.0903C3.93978 4.1803 3.92975 4.27031 3.92975 4.36031C3.92975 4.47031 3.92978 4.57031 3.95978 4.66031C3.98978 4.75031 4.00973 4.8203 4.03973 4.8903C4.07973 4.9503 4.12977 5.0003 4.19977 5.0303C4.26977 5.0603 4.34977 5.08031 4.44977 5.08031C4.54977 5.08031 4.63977 5.06031 4.69977 5.02031C4.76977 4.98031 4.81974 4.9303 4.85974 4.8703C4.89974 4.8103 4.92977 4.7303 4.94977 4.6403C4.96977 4.5503 4.97974 4.46031 4.97974 4.36031H4.98975Z" fill="white"/>
<path d="M7.44952 5.23985C7.44952 5.23985 7.44951 5.28985 7.43951 5.29985C7.43951 5.31985 7.41948 5.32985 7.40948 5.34985C7.39948 5.35985 7.3795 5.36985 7.3595 5.37985C7.3395 5.37985 7.3195 5.37985 7.2995 5.37985H7.11951C7.11951 5.37985 7.04953 5.37984 7.01953 5.36984C6.98953 5.36984 6.96952 5.34985 6.94952 5.32985C6.92952 5.30985 6.90952 5.27985 6.87952 5.24985C6.85952 5.21985 6.83951 5.16984 6.80951 5.11984L6.2995 4.16985C6.2695 4.10985 6.23953 4.04985 6.20953 3.98985C6.17953 3.91985 6.14952 3.85985 6.12952 3.79985C6.12952 3.87985 6.12952 3.94985 6.12952 4.02985C6.12952 4.09985 6.12952 4.17984 6.12952 4.25984V5.31985C6.12952 5.31985 6.12952 5.33985 6.12952 5.34985C6.12952 5.34985 6.10949 5.36984 6.09949 5.36984C6.08949 5.36984 6.06949 5.37985 6.03949 5.37985C6.01949 5.37985 5.98952 5.37985 5.94952 5.37985C5.90952 5.37985 5.8795 5.37985 5.8595 5.37985C5.8395 5.37985 5.8195 5.37984 5.7995 5.36984C5.7895 5.36984 5.77953 5.35985 5.76953 5.34985C5.76953 5.34985 5.76953 5.32985 5.76953 5.31985V3.48985C5.76953 3.48985 5.77951 3.39985 5.80951 3.37985C5.83951 3.35985 5.86949 3.33984 5.91949 3.33984H6.13953C6.13953 3.33984 6.2095 3.33985 6.2395 3.34985C6.2695 3.35985 6.28951 3.36985 6.30951 3.37985C6.32951 3.38985 6.34951 3.41984 6.36951 3.44984C6.38951 3.47984 6.4095 3.50985 6.4295 3.54985L6.82953 4.28984C6.82953 4.28984 6.87954 4.37985 6.89954 4.41985C6.91954 4.45985 6.93948 4.50985 6.96948 4.54985C6.98948 4.58985 7.00954 4.63984 7.02954 4.67984C7.04954 4.71984 7.06954 4.75984 7.08954 4.80984C7.08954 4.73984 7.08954 4.65985 7.08954 4.57985C7.08954 4.49985 7.08954 4.41985 7.08954 4.34985V3.39984C7.08954 3.39984 7.08954 3.37984 7.08954 3.36984C7.08954 3.36984 7.10951 3.34985 7.11951 3.34985C7.12951 3.34985 7.1495 3.33984 7.1795 3.33984C7.1995 3.33984 7.22953 3.33984 7.26953 3.33984C7.30953 3.33984 7.3395 3.33984 7.3595 3.33984C7.3795 3.33984 7.39949 3.33985 7.41949 3.34985C7.42949 3.34985 7.43952 3.35984 7.44952 3.36984C7.44952 3.36984 7.44952 3.38984 7.44952 3.39984V5.22984V5.23985Z" fill="white"/>
<path d="M13.7401 6.8089C15.2091 6.8089 16.4001 5.64932 16.4001 4.2189C16.4001 2.78849 15.2091 1.62891 13.7401 1.62891C12.271 1.62891 11.0801 2.78849 11.0801 4.2189C11.0801 5.64932 12.271 6.8089 13.7401 6.8089Z" fill="white"/>
</svg>
