<svg width="33" height="32" viewBox="0 0 33 32" fill="none" xmlns="http://www.w3.org/2000/svg">
<path d="M5.4082 14.3595H15.1156V4.93945H5.4082V14.3595ZM7.03098 6.51424H13.4927V12.7847H7.03098V6.51424Z" fill="white"/>
<path d="M11.8999 8.08984H8.6543V11.2394H11.8999V8.08984Z" fill="white"/>
<path d="M5.4082 26.9298H15.1156V17.5098H5.4082V26.9298ZM7.03098 19.0846H13.4927V25.355H7.03098V19.0846Z" fill="white"/>
<path d="M11.8999 20.6582H8.6543V23.8078H11.8999V20.6582Z" fill="white"/>
<path d="M18.3613 4.93945V14.3595H28.0687V4.93945H18.3613ZM26.4459 12.7847H19.9842V6.51424H26.4459V12.7847Z" fill="white"/>
<path d="M24.8531 8.08984H21.6074V11.2394H24.8531V8.08984Z" fill="white"/>
<path d="M23.2305 25.3541V26.9289H28.0693V25.3541V23.7793H26.4466V25.3541H23.2305Z" fill="white"/>
<path d="M23.23 17.5098H19.9844V19.0846H23.23V17.5098Z" fill="white"/>
<path d="M26.4743 22.2324H24.8516V23.8072H26.4743V22.2324Z" fill="white"/>
<path d="M28.0681 20.6582H26.4453V22.233H28.0681V20.6582Z" fill="white"/>
<path d="M24.8532 19.0846H23.2305V20.6593H26.4466V19.0846H28.0693V17.5098H24.8532V19.0846Z" fill="white"/>
<path d="M21.6071 25.3535H19.9844V26.9283H21.6071V25.3535Z" fill="white"/>
<path d="M19.9842 19.084H18.3613V20.6588H19.9842V19.084Z" fill="white"/>
<path d="M19.9842 22.2324H18.3613V25.382H19.9842V22.2324Z" fill="white"/>
<path d="M19.9844 20.6582V22.233H21.6071V25.3539H23.23V20.6582H19.9844Z" fill="white"/>
<path d="M7.0301 0.214844V1.78963H2.16169V6.51394H0.568359V0.214844H7.0301Z" fill="white"/>
<path d="M7.0301 31.6526V30.0778H2.16169V25.3535H0.568359V31.6526H7.0301Z" fill="white"/>
<path d="M32.9365 6.51394H31.3137V1.78963H26.4453V0.214844H32.9365V6.51394Z" fill="white"/>
<path d="M32.9365 25.3535H31.3137V30.0778H26.4453V31.6526H32.9365V25.3535Z" fill="white"/>
</svg>
