<svg width="187" height="45" viewBox="0 0 187 45" fill="none" xmlns="http://www.w3.org/2000/svg">
<path d="M112.457 22.178V18.448C112.457 18.086 112.624 17.919 112.957 17.919H115.184C115.518 17.919 115.684 18.086 115.684 18.448V22.178H121.084C121.141 22.17 121.198 22.1753 121.252 22.1934C121.306 22.2114 121.356 22.2418 121.396 22.2821C121.437 22.3225 121.467 22.3716 121.485 22.4257C121.503 22.4798 121.509 22.5374 121.501 22.594V24.46C121.509 24.5166 121.504 24.5743 121.486 24.6286C121.468 24.6828 121.437 24.7321 121.397 24.7726C121.356 24.813 121.307 24.8435 121.253 24.8616C121.198 24.8797 121.141 24.885 121.084 24.877H115.684V31.777C115.684 33.696 116.296 34.531 118.551 34.531H121.251C121.308 34.523 121.365 34.5283 121.42 34.5464C121.474 34.5645 121.523 34.595 121.564 34.6354C121.604 34.6759 121.634 34.7252 121.653 34.7794C121.671 34.8337 121.676 34.8914 121.668 34.948V36.812C121.676 36.8687 121.671 36.9265 121.653 36.9809C121.635 37.0353 121.604 37.0847 121.564 37.1252C121.524 37.1658 121.474 37.1964 121.42 37.2146C121.366 37.2327 121.308 37.238 121.251 37.23H118.023C113.623 37.23 112.457 35.645 112.457 31.777V24.877H109.757C109.7 24.8848 109.643 24.8794 109.589 24.8612C109.535 24.843 109.485 24.8125 109.445 24.7721C109.405 24.7317 109.374 24.6825 109.356 24.6284C109.338 24.5742 109.332 24.5166 109.34 24.46V22.594C109.332 22.5374 109.338 22.4798 109.356 22.4257C109.374 22.3716 109.405 22.3225 109.445 22.2821C109.485 22.2418 109.535 22.2114 109.589 22.1934C109.643 22.1753 109.7 22.17 109.757 22.178H112.457Z" fill="white"/>
<path d="M138.056 22.178C141.812 22.178 142.814 23.346 142.814 26.658V29.134C142.814 30.302 142.314 30.692 141.227 30.692H126.649V31.555C126.649 33.642 127.456 34.477 130.295 34.477H141.926C141.983 34.4688 142.04 34.4739 142.095 34.4919C142.149 34.5099 142.198 34.5403 142.239 34.5807C142.279 34.621 142.31 34.6703 142.328 34.7245C142.346 34.7787 142.351 34.8364 142.343 34.893V36.813C142.351 36.8697 142.346 36.9275 142.328 36.9818C142.31 37.0362 142.28 37.0855 142.239 37.126C142.199 37.1665 142.149 37.197 142.095 37.215C142.041 37.2331 141.983 37.2382 141.926 37.23H129.989C125.008 37.23 123.421 35.645 123.421 31.692V27.713C123.421 23.735 125.008 22.176 129.989 22.176L138.056 22.178ZM126.646 28.634H139.059C139.448 28.634 139.643 28.496 139.643 28.048V26.769C139.643 25.269 139.143 24.71 137.443 24.71H130.292C127.454 24.71 126.646 25.544 126.646 27.66V28.634Z" fill="white"/>
<path d="M162.938 22.178C163.244 22.178 163.355 22.318 163.355 22.594V24.514C163.355 24.792 163.243 24.931 162.938 24.931H152.114C149.276 24.931 148.496 25.766 148.496 28.331V31.087C148.496 33.647 149.276 34.481 152.114 34.481H162.939C163.245 34.481 163.356 34.621 163.356 34.897V36.817C163.356 37.096 163.244 37.234 162.939 37.234H151.807C146.826 37.234 145.268 35.649 145.268 31.696V27.717C145.268 23.738 146.826 22.18 151.807 22.18L162.938 22.178Z" fill="white"/>
<path d="M168.895 16.362C169.256 16.362 169.423 16.529 169.423 16.862V22.18H180.387C185.34 22.18 186.926 23.766 186.926 27.717V36.734C186.936 36.8019 186.929 36.8712 186.908 36.9362C186.886 37.0013 186.85 37.0605 186.801 37.109C186.753 37.1575 186.693 37.194 186.628 37.2157C186.563 37.2374 186.494 37.2437 186.426 37.234H184.204C184.136 37.2435 184.067 37.2371 184.002 37.2153C183.937 37.1935 183.878 37.157 183.83 37.1085C183.781 37.06 183.744 37.001 183.723 36.936C183.701 36.871 183.695 36.8019 183.704 36.734V28.467C183.704 25.937 183.065 25.073 180.226 25.073H169.426V36.734C169.426 37.066 169.259 37.234 168.898 37.234H166.698C166.334 37.234 166.198 37.067 166.198 36.734V16.864C166.198 16.531 166.336 16.364 166.698 16.364L168.895 16.362Z" fill="white"/>
<path d="M46.139 15.985C44.8032 15.9232 43.4722 16.1841 42.2586 16.7456C41.045 17.3071 39.9846 18.1528 39.167 19.211C38.3457 18.157 37.2846 17.3144 36.0719 16.7533C34.8592 16.1921 33.53 15.9288 32.195 15.985C26.941 15.985 22.83 19.159 22.83 25.506V36.693C22.8188 36.7915 22.83 36.8913 22.8628 36.9849C22.8955 37.0785 22.949 37.1635 23.0192 37.2336C23.0893 37.3037 23.1744 37.357 23.268 37.3896C23.3617 37.4223 23.4615 37.4333 23.56 37.422H26.89C26.9884 37.4332 27.0881 37.422 27.1816 37.3893C27.2751 37.3566 27.3599 37.3033 27.4299 37.2332C27.4999 37.1631 27.5531 37.0781 27.5857 36.9846C27.6183 36.8911 27.6293 36.7914 27.618 36.693V25.506C27.618 21.343 30.118 20.564 32.196 20.564C34.227 20.564 36.62 21.292 36.775 25.194V36.694C36.7639 36.7924 36.775 36.8921 36.8077 36.9856C36.8404 37.0792 36.8938 37.1641 36.9638 37.2342C37.0339 37.3042 37.1188 37.3576 37.2124 37.3903C37.3059 37.423 37.4056 37.4341 37.504 37.423H40.834C40.9325 37.4343 41.0323 37.4232 41.126 37.3906C41.2196 37.358 41.3047 37.3047 41.3749 37.2346C41.445 37.1645 41.4985 37.0795 41.5312 36.9859C41.564 36.8923 41.5752 36.7925 41.564 36.694V25.194C41.719 21.294 44.064 20.564 46.141 20.564C48.218 20.564 50.72 21.344 50.72 25.506V36.693C50.7089 36.7914 50.72 36.8911 50.7527 36.9846C50.7854 37.0782 50.8388 37.1631 50.9088 37.2332C50.9789 37.3032 51.0638 37.3566 51.1574 37.3893C51.2509 37.422 51.3506 37.4331 51.449 37.422H54.779C54.8775 37.4331 54.9771 37.422 55.0707 37.3893C55.1642 37.3566 55.2491 37.3032 55.3192 37.2332C55.3892 37.1631 55.4426 37.0782 55.4753 36.9846C55.508 36.8911 55.5192 36.7914 55.508 36.693V25.506C55.508 19.159 51.397 15.985 46.142 15.985" fill="white"/>
<path d="M67.274 27.016L74.351 17.182C74.3921 17.127 74.4166 17.0613 74.4215 16.9928C74.4264 16.9243 74.4115 16.8558 74.3787 16.7955C74.3458 16.7352 74.2964 16.6856 74.2362 16.6525C74.176 16.6194 74.1076 16.6044 74.039 16.609H69.668C69.4381 16.5978 69.2096 16.6502 69.0076 16.7604C68.8056 16.8707 68.6379 17.0346 68.523 17.234L63.373 24.726H62.683V1.72602C62.6945 1.62778 62.6836 1.52821 62.6512 1.43476C62.6188 1.3413 62.5658 1.25637 62.496 1.18628C62.4262 1.1162 62.3415 1.06278 62.2481 1.03C62.1548 0.997231 62.0553 0.985961 61.957 0.997014H58.627C58.5285 0.985698 58.4287 0.996744 58.335 1.02936C58.2414 1.06198 58.1563 1.11533 58.0861 1.1854C58.016 1.25547 57.9625 1.34048 57.9298 1.43409C57.897 1.52769 57.8858 1.62748 57.897 1.72602V36.69C57.8858 36.7885 57.897 36.8883 57.9298 36.9819C57.9625 37.0755 58.016 37.1606 58.0861 37.2306C58.1563 37.3007 58.2414 37.354 58.335 37.3866C58.4287 37.4193 58.5285 37.4303 58.627 37.419H61.957C62.0553 37.4301 62.1548 37.4188 62.2481 37.386C62.3415 37.3532 62.4262 37.2998 62.496 37.2297C62.5658 37.1597 62.6188 37.0747 62.6512 36.9813C62.6836 36.8878 62.6945 36.7882 62.683 36.69V29.302H63.373L68.523 36.847C68.6537 37.0276 68.826 37.174 69.0253 37.2737C69.2247 37.3735 69.4451 37.4237 69.668 37.42H74.039C74.1076 37.4247 74.176 37.4096 74.2362 37.3765C74.2964 37.3435 74.3458 37.2938 74.3787 37.2335C74.4115 37.1732 74.4264 37.1047 74.4215 37.0362C74.4166 36.9677 74.3921 36.902 74.351 36.847L67.274 27.016Z" fill="white"/>
<path d="M83.645 16.393C81.5599 16.3932 79.5216 17.0117 77.7879 18.1703C76.0543 19.3289 74.7031 20.9756 73.9053 22.9021C73.1075 24.8286 72.8988 26.9484 73.3057 28.9935C73.7127 31.0385 74.7169 32.917 76.1914 34.3914C77.6659 35.8658 79.5444 36.8698 81.5895 37.2765C83.6347 37.6832 85.7545 37.4744 87.6809 36.6764C89.6073 35.8784 91.2538 34.527 92.4123 32.7933C93.5707 31.0595 94.189 29.0212 94.189 26.936C94.1859 24.1406 93.0739 21.4607 91.0972 19.4841C89.1205 17.5076 86.4404 16.3959 83.645 16.393ZM83.645 33.205C82.4054 33.205 81.1936 32.8374 80.1628 32.1487C79.1321 31.4601 78.3287 30.4812 77.8543 29.3359C77.3798 28.1906 77.2556 26.9304 77.4974 25.7146C77.7392 24.4987 78.336 23.3819 79.2125 22.5052C80.089 21.6286 81.2058 21.0315 82.4216 20.7896C83.6374 20.5476 84.8977 20.6716 86.043 21.1458C87.1884 21.6201 88.1673 22.4233 88.8562 23.454C89.545 24.4846 89.9128 25.6964 89.913 26.936C89.9112 28.5979 89.2503 30.1912 88.0752 31.3665C86.9002 32.5417 85.3069 33.2029 83.645 33.205Z" fill="white"/>
<path d="M21.196 26.962C21.203 25.5769 20.9362 24.204 20.4111 22.9223C19.8859 21.6405 19.1127 20.4752 18.1358 19.4932C17.1589 18.5112 15.9976 17.7319 14.7186 17.2C13.4396 16.6682 12.0682 16.3943 10.683 16.394C10.522 16.394 10.36 16.394 10.198 16.405C7.51369 16.5843 4.99423 17.7639 3.13751 19.7108C1.28079 21.6577 0.221897 24.2302 0.170044 26.92C0.170104 27.4997 0.218251 28.0783 0.314026 28.65H16.855L16.674 29.135C16.2167 30.3556 15.3985 31.408 14.3282 32.1521C13.258 32.8961 11.9865 33.2965 10.683 33.3C9.0528 33.3044 7.48334 32.6814 6.30002 31.56H1.25201C2.30008 33.6847 4.03499 35.3932 6.17551 36.4086C8.31602 37.424 10.7367 37.6868 13.0452 37.1544C15.3538 36.622 17.4149 35.3255 18.8944 33.4752C20.374 31.6249 21.1854 29.3291 21.197 26.96M16.315 25.102H4.52802L4.71503 24.614C5.17864 23.4078 5.99698 22.3704 7.06213 21.6386C8.12729 20.9069 9.38923 20.5152 10.6815 20.5152C11.9738 20.5152 13.2357 20.9069 14.3009 21.6386C15.3661 22.3704 16.1844 23.4078 16.648 24.614L16.835 25.102H16.315Z" fill="white"/>
<path d="M102.092 9.19101H100.899V44.683H102.092V9.19101Z" fill="white"/>
</svg>
